<?xml version="1.0" standalone="no"?>
<!DOCTYPE svg PUBLIC "-//W3C//DTD SVG 20010904//EN"
 "http://www.w3.org/TR/2001/REC-SVG-20010904/DTD/svg10.dtd">
<svg version="1.0" xmlns="http://www.w3.org/2000/svg"
 width="65.000000pt" height="65.000000pt" viewBox="0 0 65.000000 65.000000"
 preserveAspectRatio="xMidYMid meet">
<metadata>
Created by potrace 1.11, written by Peter Selinger 2001-2013
</metadata>
<g transform="translate(0.000000,65.000000) scale(0.100000,-0.100000)"
fill="#000000" stroke="none">
<path d="M24 475 c-13 -21 -15 -31 -6 -50 9 -19 8 -32 -3 -59 -21 -50 -19 -52
20 -17 20 17 47 34 61 37 39 10 122 -3 156 -24 l30 -19 -51 -7 c-77 -10 -110
-27 -41 -20 l55 4 -48 -16 c-26 -9 -46 -18 -44 -20 2 -2 41 4 88 12 57 11 92
13 109 7 49 -18 146 -16 195 6 l45 20 -30 -44 c-47 -68 -91 -90 -180 -90 -61
1 -90 7 -154 33 -43 18 -80 31 -82 29 -2 -1 28 -21 66 -44 158 -95 260 -90
371 16 67 65 76 99 35 126 -25 17 -70 8 -78 -16 -7 -20 -60 4 -126 55 -111 86
-226 126 -280 97 -14 -7 -23 -8 -27 -1 -13 21 -64 11 -81 -15z m312 -83 c22
-11 47 -28 55 -38 13 -15 12 -16 -11 -10 -47 14 -150 65 -150 74 0 14 56 0
106 -26z"/>
</g>
</svg>
